<?xml version="1.0" encoding="UTF-8"?>
<svg version="1.1" xmlns="http://www.w3.org/2000/svg" width="1448" height="1086">
<path d="M0 0 C477.84 0 955.68 0 1448 0 C1448 358.38 1448 716.76 1448 1086 C970.16 1086 492.32 1086 0 1086 C0 727.62 0 369.24 0 0 Z " fill="#FDFDFD" transform="translate(0,0)"/>
<path d="M0 0 C1.29292969 0.20625 2.58585938 0.4125 3.91796875 0.625 C13.85395672 2.28019137 23.43136437 4.87421569 33 8 C33.64904297 8.20963379 34.29808594 8.41926758 34.96679688 8.63525391 C82.01538515 24.14695852 121.66893282 61.06049169 144.01953125 104.8125 C151.72780959 120.62119851 157.51053235 137.77004539 159.60546875 155.234375 C159.84440721 157.95249389 159.84440721 157.95249389 161 160 C162.45282925 168.53576979 162.15866732 177.2914645 162.17358398 185.92016602 C162.17990149 187.50980303 162.18666859 189.0994383 162.19384766 190.68907166 C162.20843869 194.09598486 162.22019528 197.5028916 162.22979546 200.90982246 C162.24536053 206.31311784 162.26931099 211.71635663 162.29469299 217.11961365 C162.36559177 232.4792013 162.42551066 247.83882108 162.47680664 263.19848633 C162.50525359 271.69429444 162.54070999 280.19004586 162.58346039 288.68579429 C162.60999149 294.04001621 162.62804357 299.39417419 162.63949764 304.74844849 C162.64872772 308.10242864 162.66613634 311.45633207 162.68567657 314.81026649 C162.69304884 316.34633914 162.69722676 317.88243161 162.69767189 319.41852188 C162.70486677 333.17443938 163.69003106 346.88782363 166.875 360.3125 C167.0493457 361.06337891 167.22369141 361.81425781 167.40332031 362.58789062 C176.23974851 399.68496757 198.61596312 435.82573458 229 459 C229.93328125 459.73734375 230.8665625 460.4746875 231.828125 461.234375 C247.03171992 473.02325876 264.34026642 482.98624781 282.97265625 488.11328125 C285.32005042 488.80084058 287.48240522 489.57126262 289.74609375 490.47265625 C294.39653914 492.24769863 299.11985108 493.20072937 304 494.125 C304.85078125 494.29386719 305.7015625 494.46273438 306.578125 494.63671875 C316.71318122 496.61087847 326.42511078 497.23950001 336.75 497.25 C337.43741272 497.25100708 338.12482544 497.25201416 338.83306885 497.25305176 C350.45592611 497.24157173 361.60576728 496.3494054 373 494 C374.05985107 493.79914795 374.05985107 493.79914795 375.14111328 493.59423828 C421.49345118 484.75654964 460.73176536 455.82310629 487.078125 417.4453125 C499.13713996 399.403957 506.50173277 379.08248938 511.49902344 358.06787109 C511.82869115 356.70710818 512.17529807 355.35031935 512.54003906 353.99853516 C515.26584601 343.82570314 515.16046303 333.58317364 515.18945312 323.12988281 C515.19740817 321.53390287 515.2057971 319.93792504 515.21458435 318.34194946 C515.23256157 314.91918815 515.2476056 311.49643126 515.26036072 308.07364655 C515.28070055 302.65052831 515.30833804 297.22746188 515.33703613 291.80438232 C515.39696861 280.28627932 515.44885977 268.76814488 515.5 257.25 C515.55520977 244.82615203 515.61189486 232.4023199 515.67754889 219.97852206 C515.70570789 214.59895003 515.72937119 209.21938347 515.74947357 203.83977556 C515.76297186 200.4783652 515.78037703 197.11698288 515.79878426 193.75559616 C515.80646316 192.20977624 515.81256561 190.66394745 515.81687737 189.11811447 C515.85260899 176.77734197 516.16900869 164.55424155 518.6875 152.4375 C518.94805176 151.17413818 518.94805176 151.17413818 519.21386719 149.88525391 C528.20614989 107.89269632 550.51073512 69.17456919 584.23828125 42.2109375 C585.94373841 40.84560687 587.63265979 39.45895194 589.29296875 38.0390625 C613.95560585 17.23924808 645.5216615 5.28775419 677 0 C678.23492188 -0.22558594 679.46984375 -0.45117188 680.7421875 -0.68359375 C727.35839551 -8.21070974 777.75210257 5.62478581 815.90625 32.75 C824.29025867 38.83421106 832.08881574 45.36744172 839.52246094 52.578125 C840.91397746 53.91721823 842.33506572 55.2253861 843.7578125 56.53125 C876.91737225 87.85398282 893.59982613 133.27201709 896 178 C896.12463945 182.81395424 896.13132876 187.62405597 896.12025452 192.43942261 C896.12069184 193.8374385 896.12156969 195.23545432 896.12284368 196.6334697 C896.12505711 200.43277834 896.1211111 204.23205826 896.11606562 208.03136325 C896.11171551 212.14431166 896.11321076 216.25725867 896.1139679 220.37020874 C896.11449026 227.48215997 896.11137362 234.59410197 896.10573006 241.70605087 C896.09757593 251.98852162 896.09499584 262.27098794 896.09374207 272.55346157 C896.09155768 289.23925685 896.08491425 305.92504722 896.07543945 322.61083984 C896.06624945 338.81201147 896.05917639 355.01318176 896.05493164 371.21435547 C896.05466892 372.21430785 896.05440619 373.21426024 896.05413551 374.24451421 C896.0528304 379.26137326 896.05156671 384.27823232 896.05032361 389.29509139 C896.03997009 430.86339783 896.02209177 472.43169828 896 514 C884.12 514 872.24 514 860 514 C859.99413376 509.80183563 859.98826752 505.60367126 859.98222351 501.27828979 C859.9269511 462.70670759 859.85693633 424.13517415 859.77101372 385.56364762 C859.75974667 380.49978876 859.74860804 375.43592963 859.73754883 370.37207031 C859.73534514 369.36402273 859.73314146 368.35597516 859.730871 367.31738068 C859.69557832 351.03337116 859.67066898 334.74936169 859.64965298 318.4653282 C859.62782676 301.73422795 859.59471212 285.00317697 859.55129844 268.27211869 C859.52489876 257.96300533 859.50711756 247.65395327 859.50065396 237.34480782 C859.49536409 230.25832284 859.47902786 223.17191474 859.45433434 216.08547108 C859.44044144 212.00787172 859.43110205 207.93040956 859.43499184 203.85278511 C859.45223649 180.96375113 859.04116737 158.69189162 851 137 C850.44699219 135.48986328 850.44699219 135.48986328 849.8828125 133.94921875 C843.34677334 117.29358793 834.2966495 102.45971077 822.140625 89.33203125 C820.24853882 87.27076218 818.46817538 85.15669179 816.6875 83 C799.25807579 63.19383612 773.97796834 50.09815247 749 43 C749 42.34 749 41.68 749 41 C748.39671875 40.93941406 747.7934375 40.87882812 747.171875 40.81640625 C745.97304687 40.69072266 745.97304687 40.69072266 744.75 40.5625 C743.96109375 40.48128906 743.1721875 40.40007812 742.359375 40.31640625 C740 40 740 40 738.26489258 39.5144043 C727.65627739 37.10496674 715.77528428 37.78654065 704.93920898 37.75976562 C702.56784454 37.75002196 700.19733639 37.71883158 697.82617188 37.6875 C683.56574354 37.58709006 670.50701656 39.71527948 657 44.4375 C656.13761719 44.72431641 655.27523437 45.01113281 654.38671875 45.30664062 C649.00781799 47.13905826 644.03270081 49.37741294 639 52 C638.0615625 52.43441406 637.123125 52.86882812 636.15625 53.31640625 C622.06803953 59.9254344 610.06626304 69.16492629 599 80 C598.05382812 80.89589844 597.10765625 81.79179687 596.1328125 82.71484375 C572.02128516 105.99148441 553.89601945 142.41081962 552.90546227 176.22742081 C552.86527749 180.25297393 552.85651721 184.27751904 552.8581543 188.30322266 C552.85511797 189.85176695 552.85159521 191.40031036 552.84762573 192.94885254 C552.8397637 196.27611005 552.83460159 199.60335698 552.83133507 202.9306221 C552.82537788 208.223912 552.80878687 213.51713627 552.78999329 218.81039429 C552.78365587 220.63147159 552.77733024 222.45254894 552.77101612 224.27362633 C552.76785031 225.18572514 552.7646845 226.09782396 552.76142275 227.03756213 C552.71959675 239.34583007 552.68647659 251.65406818 552.67407227 263.96240234 C552.66560261 272.28147261 552.64278234 280.60038024 552.6047166 288.9193691 C552.58523552 293.30327153 552.57245529 297.68693253 552.57755089 302.07088089 C552.6124272 339.14932729 549.15416172 374.68070979 534 409 C533.68836914 409.72735352 533.37673828 410.45470703 533.05566406 411.20410156 C524.37757085 431.39788671 511.95698796 449.60878791 497.07421875 465.73828125 C495.19878414 467.78324667 493.40967467 469.87619475 491.625 472 C470.79843973 495.78813536 439.80379804 513.97815435 410 524 C408.89035889 524.38067627 408.89035889 524.38067627 407.75830078 524.76904297 C355.73552748 542.49735159 297.2696891 539.87873942 247.58081055 515.82910156 C201.00450116 492.6573534 160.98962364 453.37382852 141.59375 404.453125 C140.65493841 401.65091466 139.80595629 398.84274801 139 396 C138.52793044 394.60175048 138.04896729 393.20580577 137.5625 391.8125 C137.0385064 390.20936284 136.51814281 388.60503772 136 387 C135.63003906 385.89398437 135.26007813 384.78796875 134.87890625 383.6484375 C126.44559412 357.56043088 125.27939556 332.01551607 125.42282748 304.88586807 C125.44119882 300.17477873 125.42744389 295.46378219 125.41651917 290.75268555 C125.39607905 279.8436384 125.41133006 268.93479951 125.43199158 258.02576447 C125.45732099 244.11237317 125.4697753 230.19909712 125.44203526 216.28570175 C125.43379729 211.62289963 125.43412974 206.96043696 125.45528984 202.29766846 C125.76099631 175.38681658 125.76099631 175.38681658 121 149 C120.57082527 147.42326004 120.57082527 147.42326004 120.13298035 145.81466675 C119.4689743 143.47809041 118.71288971 141.21681782 117.875 138.9375 C117.58351074 138.12788818 117.29202148 137.31827637 116.99169922 136.48413086 C103.27268329 99.84691391 76.84973073 72.27810133 42.81616211 54.00073242 C41.04995927 53.0275283 39.32462003 51.98129195 37.6015625 50.93359375 C33.54617181 48.60808511 29.27306029 47.27826978 24.8125 45.9375 C23.96880859 45.67928467 23.12511719 45.42106934 22.25585938 45.1550293 C15.8807273 43.22355968 9.52652342 41.3536493 3 40 C2.36288086 39.86464844 1.72576172 39.72929687 1.06933594 39.58984375 C-17.30799884 35.81053081 -36.40147165 35.67871559 -54.92578125 38.5625 C-57.67353146 38.95353942 -60.23108345 39.08311945 -63 39 C-63 39.66 -63 40.32 -63 41 C-63.68964844 41.10957031 -64.37929688 41.21914063 -65.08984375 41.33203125 C-94.96085406 46.37199595 -120.87995906 64.04545667 -142 85 C-142.83273438 85.81984375 -143.66546875 86.6396875 -144.5234375 87.484375 C-174.73764133 119.11657395 -183.47231907 160.74246723 -183.43273985 202.88681805 C-183.43211019 207.0713198 -183.4487899 211.25575948 -183.46325684 215.44023132 C-183.48594049 222.67163125 -183.49791016 229.90298333 -183.50238609 237.13441658 C-183.50887318 247.58955369 -183.53185524 258.04460469 -183.55872939 268.49970692 C-183.60189991 285.46667071 -183.6319221 302.43363085 -183.65356445 319.40063477 C-183.67460342 335.87233267 -183.70190388 352.34400078 -183.73754883 368.81567383 C-183.73974765 369.83276002 -183.74194648 370.8498462 -183.74421193 371.89775319 C-183.75528231 377.000705 -183.76647499 382.10365653 -183.77772844 387.20660794 C-183.87077556 429.47104716 -183.9416194 471.73549986 -184 514 C-195.88 514 -207.76 514 -220 514 C-220.1360047 470.43233785 -220.24325459 426.86472722 -220.30639198 383.29689436 C-220.31389506 378.13819615 -220.3216611 372.97949836 -220.32958984 367.82080078 C-220.33116371 366.79391738 -220.33273757 365.76703398 -220.33435912 364.70903291 C-220.36037505 348.1425924 -220.40763106 331.57627846 -220.46291678 315.00991271 C-220.51928332 297.97596883 -220.55240672 280.94209064 -220.56453097 263.90805733 C-220.57271072 253.42070595 -220.59842078 242.9337125 -220.6474988 232.44647147 C-220.6795335 225.2277069 -220.68872963 218.00912383 -220.68100826 210.79029356 C-220.67721397 206.64263683 -220.6824822 202.49559958 -220.71523285 198.34805679 C-221.09771939 147.36769935 -206.706253 98.58883225 -171 61 C-169.86861934 59.67207659 -168.7431487 58.33908411 -167.625 57 C-137.91954312 23.18779793 -91.10689498 2.08209207 -46.65332031 -1.84106445 C-31.13102675 -2.77085955 -15.33639696 -2.68177433 0 0 Z " fill="#030303" transform="translate(386,232)"/>
<path d="M0 0 C1.30078125 1.36328125 1.30078125 1.36328125 2.3125 3.3125 C9.03263179 15.1040356 17.3242411 25.32182548 30 31 C30.94101563 31.44472656 31.88203125 31.88945313 32.8515625 32.34765625 C41.33712436 35.78593696 49.17197592 36.4716393 58.3125 36.5 C59.40925049 36.50612305 60.50600098 36.51224609 61.63598633 36.51855469 C71.56092429 36.36538975 79.88048252 34.05593198 88.5625 29.3125 C89.52446289 28.78813354 89.52446289 28.78813354 90.50585938 28.25317383 C100.45790385 22.65326586 106.25011382 15.78672336 112 6 C112.80191979 4.7639047 113.61221244 3.53311762 114.4375 2.3125 C114.953125 1.549375 115.46875 0.78625 116 0 C122.3722342 0.27705366 128.34145714 2.52892365 133 7 C134.07772804 14.25017047 129.93425433 19.99473689 125.79736328 25.64160156 C115.95056177 38.42125561 104.72797446 46.59242025 90 53 C89.07670898 53.41306396 89.07670898 53.41306396 88.13476562 53.83447266 C72.42668388 60.60592952 47.32032865 61.42229965 31.25 55.4375 C29.4878154 54.65177633 27.73941538 53.83491938 26 53 C25.39075684 52.71705078 24.78151367 52.43410156 24.15380859 52.14257812 C7.35642483 44.31925051 -4.99259861 34.60469841 -14 18 C-14.639375 16.906875 -15.27875 15.81375 -15.9375 14.6875 C-17.21652755 11.45231267 -17.13563008 10.26307682 -16 7 C-13.671875 4.98046875 -13.671875 4.98046875 -10.75 3.1875 C-9.79609375 2.58292969 -8.8421875 1.97835937 -7.859375 1.35546875 C-4.87734754 -0.05814263 -3.24181358 -0.57632241 0 0 Z " fill="#060606" transform="translate(1034,539)"/>
<path d="M0 0 C7.7240433 6.16468059 13.52172739 13.05917228 18.90234375 21.31640625 C19.56234375 22.30640625 20.22234375 23.29640625 20.90234375 24.31640625 C21.3828125 26.69921875 21.3828125 26.69921875 20.90234375 29.31640625 C19.0156676 31.23618198 17.37310139 32.65304676 15.21484375 34.19140625 C14.68439453 34.60648438 14.15394531 35.0215625 13.60742188 35.44921875 C11.10964751 37.28807104 9.37593775 38.30317348 6.24609375 38.390625 C3.08274023 36.94075464 1.98547775 35.15522398 0.08984375 32.25390625 C-10.7532784 16.6163439 -25.46165306 8.33132708 -44.03515625 4.75 C-61.86199686 2.2260468 -78.91132082 7.28265444 -93.28515625 17.94140625 C-98.90697283 22.63834333 -102.932367 28.3538245 -107.09765625 34.31640625 C-108.09197803 35.65397942 -109.0895848 36.98916485 -110.09765625 38.31640625 C-114.93814377 37.833777 -117.68211594 36.5942853 -121.47265625 33.56640625 C-122.34664063 32.8909375 -123.220625 32.21546875 -124.12109375 31.51953125 C-126.09765625 29.31640625 -126.09765625 29.31640625 -126.66015625 26.96875 C-125.87299697 23.25707533 -123.95249765 20.6128201 -121.72265625 17.62890625 C-121.27075928 17.0145874 -120.8188623 16.40026855 -120.35327148 15.76733398 C-108.0343978 -0.61866915 -90.03051047 -12.72237942 -69.57763672 -16.37451172 C-44.21753687 -19.53516208 -20.69605131 -15.11911783 0 0 Z " fill="#060505" transform="translate(409.09765625,551.68359375)"/>
<path d="M0 0 C1.04321411 -0.00563965 2.08642822 -0.0112793 3.16125488 -0.01708984 C4.31041382 -0.01304138 5.45957275 -0.00899292 6.64355469 -0.00482178 C7.8500769 -0.00832642 9.05659912 -0.01183105 10.29968262 -0.01544189 C13.61372989 -0.02275082 16.9275284 -0.02101698 20.24156189 -0.01468372 C23.70531557 -0.00962971 27.16905842 -0.0143135 30.6328125 -0.01745605 C36.45021479 -0.02109746 42.26756634 -0.01629206 48.08496094 -0.0067749 C54.81624543 0.00411001 61.54740878 0.00058455 68.27869034 -0.01042771 C74.0519731 -0.01949566 79.82521934 -0.02078829 85.59850693 -0.01555037 C89.04929338 -0.01242795 92.50002284 -0.01202876 95.95080566 -0.01862335 C99.79635347 -0.02545866 103.64176493 -0.01599209 107.48730469 -0.00482178 C109.21104309 -0.01089447 109.21104309 -0.01089447 110.96960449 -0.01708984 C112.53442566 -0.00863037 112.53442566 -0.00863037 114.13085938 0 C115.04083679 0.00075405 115.95081421 0.0015081 116.8883667 0.002285 C119.06542969 0.25396729 119.06542969 0.25396729 121.06542969 2.25396729 C121.21060712 5.16332308 121.25173765 7.97391329 121.19042969 10.87896729 C121.18140625 11.68076416 121.17238281 12.48256104 121.16308594 13.30865479 C121.13949192 15.29055251 121.10362033 17.27229709 121.06542969 19.25396729 C118.56574556 20.50380935 116.88386652 20.37980272 114.08616638 20.38095093 C113.03309296 20.38377075 111.98001953 20.38659058 110.89503479 20.38949585 C109.73495407 20.38747162 108.57487335 20.38544739 107.37963867 20.38336182 C106.16175659 20.38511414 104.94387451 20.38686646 103.68908691 20.38867188 C100.34418187 20.39232614 96.99933845 20.39145957 93.65443683 20.38829279 C90.15952135 20.38576625 86.66460857 20.3881075 83.16969299 20.38967896 C77.30103074 20.39149955 71.43238105 20.38909697 65.5637207 20.38433838 C58.76996334 20.37889344 51.97623596 20.38066054 45.18247932 20.38616478 C39.3574159 20.39069603 33.53236152 20.39134648 27.70729691 20.38872612 C24.22469946 20.38716373 20.74211613 20.38696858 17.25951958 20.3902626 C13.38027648 20.39367538 9.50106727 20.38895141 5.62182617 20.38336182 C4.45972122 20.38538605 3.29761627 20.38741028 2.10029602 20.38949585 C1.05004242 20.38667603 -0.00021118 20.3838562 -1.08229065 20.38095093 C-2.0005642 20.3805739 -2.91883776 20.38019688 -3.86493778 20.37980843 C-5.93457031 20.25396729 -5.93457031 20.25396729 -6.93457031 19.25396729 C-7.06120122 16.42980346 -7.11977579 13.64101935 -7.12207031 10.81646729 C-7.13431641 10.0269165 -7.1465625 9.23736572 -7.15917969 8.42388916 C-7.1644431 6.36589294 -7.05663317 4.30834719 -6.93457031 2.25396729 C-4.39519888 -0.28540415 -3.51924003 0.00291621 0 0 Z " fill="#070707" transform="translate(666.9345703125,584.7460327148438)"/>
<path d="M0 0 C6.36763998 3.50792143 10.74131051 7.9092441 12.83984375 14.9765625 C14.34154774 22.44047738 12.41144438 28.38968324 8.546875 34.6875 C3.31561039 39.77737908 -1.46711157 41.22648707 -8.765625 41.5625 C-14.51801204 41.40219768 -17.89860594 40.43049235 -22.21484375 36.640625 C-26.765625 31.64278967 -26.765625 31.64278967 -26.765625 27.9375 C-27.425625 27.9375 -28.085625 27.9375 -28.765625 27.9375 C-29.35024718 13.53847216 -29.35024718 13.53847216 -25.765625 7.9375 C-18.38091599 0.30193038 -10.69222831 -4.10774873 0 0 Z " fill="#070707" transform="translate(1043.765625,438.0625)"/>
<path d="M0 0 C5.51822869 3.24915009 10.68499757 7.75796078 12.5859375 14.00390625 C12.6271875 15.03515625 12.6684375 16.06640625 12.7109375 17.12890625 C12.77152344 17.81984375 12.83210938 18.51078125 12.89453125 19.22265625 C13.22394163 25.05222177 12.10485345 29.34609547 8.7109375 34.12890625 C4.82947689 38.31875688 0.51593987 40.83821287 -5.19140625 41.4296875 C-15.79860517 41.47064194 -15.79860517 41.47064194 -20.2890625 38.12890625 C-26.07775521 32.34021354 -28.43271523 28.66101597 -28.6015625 20.31640625 C-28.53760837 14.65355832 -28.38318036 11.32537705 -24.2890625 7.12890625 C-17.22960825 0.33933053 -10.02548036 -3.8151572 0 0 Z " fill="#050505" transform="translate(1156.2890625,437.87109375)"/>
<path d="M0 0 C4.11767967 0.47348055 7.22319864 1.99286622 10.83984375 3.95703125 C11.97558838 4.56973877 13.11133301 5.18244629 14.28149414 5.8137207 C15.50026522 6.47979303 16.7189317 7.14605677 17.9375 7.8125 C19.18777829 8.49036517 20.43835088 9.16768777 21.68920898 9.84448242 C24.85486635 11.5592994 28.01623952 13.2818585 31.17663574 15.00634766 C33.99245664 16.54084468 36.812822 18.06693268 39.6328125 19.59375 C41.60963594 20.66618582 43.58621338 21.73907525 45.5625 22.8125 C46.47700928 23.30919189 47.39151855 23.80588379 48.33374023 24.31762695 C49.17364502 24.77613037 50.0135498 25.23463379 50.87890625 25.70703125 C51.6066626 26.1038208 52.33441895 26.50061035 53.08422852 26.90942383 C54.76630626 27.866967 56.3895421 28.9263614 58 30 C57.39657055 33.77651913 56.29728319 36.78485404 54.5625 40.1875 C54.13066406 41.04730469 53.69882812 41.90710938 53.25390625 42.79296875 C52 45 52 45 50 47 C46.03295224 47.46580872 43.74800526 46.62435964 40.359375 44.61328125 C39.46524902 44.09306396 38.57112305 43.57284668 37.64990234 43.03686523 C36.69293457 42.46782471 35.7359668 41.89878418 34.75 41.3125 C25.03857043 35.66254191 15.19224033 30.37980218 5.16308594 25.31567383 C4.16825195 24.8080249 3.17341797 24.30037598 2.1484375 23.77734375 C1.27364746 23.33640381 0.39885742 22.89546387 -0.50244141 22.44116211 C-3.23776568 20.86280246 -5.58306365 19.02657485 -8 17 C-7.68028731 10.92545895 -4.32686711 4.32686711 0 0 Z " fill="#080808" transform="translate(264,436)"/>
<path d="M0 0 C1.20570907 2.0536142 2.38906641 4.11555155 3.5625 6.1875 C3.90474609 6.76564453 4.24699219 7.34378906 4.59960938 7.93945312 C6.07903193 10.58448132 7.03136851 12.46781344 6.85083008 15.53076172 C5.76563059 18.68017568 4.71472217 19.25980798 1.8203125 20.83984375 C0.92344727 21.33895264 0.02658203 21.83806152 -0.89746094 22.35229492 C-1.88004883 22.8754126 -2.86263672 23.39853027 -3.875 23.9375 C-4.88336914 24.49091064 -5.89173828 25.04432129 -6.93066406 25.61450195 C-18.36014603 31.8425065 -29.94683391 37.78944663 -41.54589844 43.6940918 C-44.14498539 45.0252878 -44.14498539 45.0252878 -47 47 C-49.48046875 46.94921875 -49.48046875 46.94921875 -52 46 C-53.80078125 43.70703125 -53.80078125 43.70703125 -55.3125 40.8125 C-55.82425781 39.87019531 -56.33601563 38.92789063 -56.86328125 37.95703125 C-58.10012322 34.739542 -58.08611935 32.41251629 -58 29 C-57.26700684 28.60844727 -56.53401367 28.21689453 -55.77880859 27.81347656 C-42.9792632 20.97347617 -30.18336817 14.12718201 -17.4375 7.1875 C-16.06634033 6.44258301 -16.06634033 6.44258301 -14.66748047 5.68261719 C-13.82717285 5.2240332 -12.98686523 4.76544922 -12.12109375 4.29296875 C-11.3933374 3.8961792 -10.66558105 3.49938965 -9.91577148 3.09057617 C-4.09759467 -0.2214916 -4.09759467 -0.2214916 0 0 Z " fill="#080807" transform="translate(450,436)"/>
<path d="M0 0 C1.27423828 -0.00193359 1.27423828 -0.00193359 2.57421875 -0.00390625 C3.91419922 0.00189453 3.91419922 0.00189453 5.28125 0.0078125 C6.17457031 0.00394531 7.06789063 0.00007813 7.98828125 -0.00390625 C8.83777344 -0.00261719 9.68726563 -0.00132812 10.5625 0 C11.34689453 0.00112793 12.13128906 0.00225586 12.93945312 0.00341797 C14.78125 0.1328125 14.78125 0.1328125 15.78125 1.1328125 C15.8803556 2.99917038 15.90924261 4.86929444 15.91064453 6.73828125 C15.91379669 7.93622314 15.91694885 9.13416504 15.92019653 10.3684082 C15.9181723 11.67253662 15.91614807 12.97666504 15.9140625 14.3203125 C15.9147356 15.66170265 15.91570568 17.00309269 15.91696167 18.34448242 C15.91843836 21.15902871 15.91628504 23.97354332 15.91162109 26.78808594 C15.90592381 30.40321881 15.90920297 34.01827745 15.91519356 37.63340759 C15.91879997 40.40426192 15.91766022 43.17509852 15.91506577 45.94595337 C15.91407033 47.92970833 15.91711741 49.91346397 15.92019653 51.8972168 C15.91704437 53.09515869 15.91389221 54.29310059 15.91064453 55.52734375 C15.90984894 56.58800049 15.90905334 57.64865723 15.90823364 58.74145508 C15.78125 61.1328125 15.78125 61.1328125 14.78125 62.1328125 C13.37776265 62.23141381 11.96944523 62.26360187 10.5625 62.265625 C9.28826172 62.26755859 9.28826172 62.26755859 7.98828125 62.26953125 C6.64830078 62.26373047 6.64830078 62.26373047 5.28125 62.2578125 C4.38792969 62.26167969 3.49460937 62.26554688 2.57421875 62.26953125 C1.72472656 62.26824219 0.87523437 62.26695312 0 62.265625 C-0.78439453 62.26449707 -1.56878906 62.26336914 -2.37695312 62.26220703 C-4.21875 62.1328125 -4.21875 62.1328125 -5.21875 61.1328125 C-5.3178556 59.26645462 -5.34674261 57.39633056 -5.34814453 55.52734375 C-5.35129669 54.32940186 -5.35444885 53.13145996 -5.35769653 51.8972168 C-5.3556723 50.59308838 -5.35364807 49.28895996 -5.3515625 47.9453125 C-5.3522356 46.60392235 -5.35320568 45.26253231 -5.35446167 43.92114258 C-5.35593836 41.10659629 -5.35378504 38.29208168 -5.34912109 35.47753906 C-5.34342381 31.86240619 -5.34670297 28.24734755 -5.35269356 24.63221741 C-5.35629997 21.86136308 -5.35516022 19.09052648 -5.35256577 16.31967163 C-5.35157033 14.33591667 -5.35461741 12.35216103 -5.35769653 10.3684082 C-5.35454437 9.17046631 -5.35139221 7.97252441 -5.34814453 6.73828125 C-5.34734894 5.67762451 -5.34655334 4.61696777 -5.34573364 3.52416992 C-5.13161538 -0.50810765 -3.61012624 0.00519123 0 0 Z " fill="#100F0F" transform="translate(659.21875,450.8671875)"/>
<path d="M0 0 C6.27 0 12.54 0 19 0 C20.75518106 1.75518106 20.12760783 4.22349715 20.12939453 6.60546875 C20.13254669 7.80341064 20.13569885 9.00135254 20.13894653 10.2355957 C20.1369223 11.53972412 20.13489807 12.84385254 20.1328125 14.1875 C20.1334856 15.52889015 20.13445568 16.87028019 20.13571167 18.21166992 C20.13718836 21.02621621 20.13503504 23.84073082 20.13037109 26.65527344 C20.12467381 30.27040631 20.12795297 33.88546495 20.13394356 37.50059509 C20.13754997 40.27144942 20.13641022 43.04228602 20.13381577 45.81314087 C20.13282033 47.79689583 20.13586741 49.78065147 20.13894653 51.7644043 C20.13579437 52.96234619 20.13264221 54.16028809 20.12939453 55.39453125 C20.12859894 56.45518799 20.12780334 57.51584473 20.12698364 58.60864258 C20 61 20 61 19 62 C12.73 62 6.46 62 0 62 C0 41.54 0 21.08 0 0 Z " fill="#0A0A0A" transform="translate(773,451)"/>
<path d="M0 0 C-2.53430723 1.52058434 -4.33971094 2.04486748 -7.3125 2.4375 C-11.39091865 3.05963166 -14.28712806 4.25722337 -18 6 C-18.66 5.34 -19.32 4.68 -20 4 C-18.27255984 3.34956281 -16.5429631 2.70485156 -14.8125 2.0625 C-13.84957031 1.70285156 -12.88664062 1.34320312 -11.89453125 0.97265625 C-7.61771391 -0.4644929 -4.36197902 -1.45399301 0 0 Z " fill="#CACACB" transform="translate(348,557)"/>
<path d="M0 0 C0.66 0.33 1.32 0.66 2 1 C-1.3 4.63 -4.6 8.26 -8 12 C-8.33 11.34 -8.66 10.68 -9 10 C-7.8758824 8.70756532 -6.75067408 7.41607925 -5.625 6.125 C-4.99851562 5.40570313 -4.37203125 4.68640625 -3.7265625 3.9453125 C-2.52573166 2.5923402 -1.2791655 1.2791655 0 0 Z " fill="#2A2A2A" transform="translate(1138,439)"/>
<path d="M0 0 C0 0.33 0 0.66 0 1 C-1.15628906 1.19916016 -1.15628906 1.19916016 -2.3359375 1.40234375 C-3.33882813 1.57894531 -4.34171875 1.75554687 -5.375 1.9375 C-6.87160156 2.19853516 -6.87160156 2.19853516 -8.3984375 2.46484375 C-10.96909656 2.87712062 -10.96909656 2.87712062 -13 4 C-14.67654729 3.72057545 -16.34608154 3.39171753 -18 3 C-18 2.67 -18 2.34 -18 2 C-11.88019467 0.59545452 -6.28260706 -0.23268915 0 0 Z " fill="#999A9A" transform="translate(341,269)"/>
<path d="M0 0 C-6.28571429 4.42857143 -6.28571429 4.42857143 -10 5 C-10 4.01 -10 3.02 -10 2 C-8.71211992 1.46987262 -7.41953322 0.9511671 -6.125 0.4375 C-5.40570312 0.14746094 -4.68640625 -0.14257812 -3.9453125 -0.44140625 C-2 -1 -2 -1 0 0 Z " fill="#C7C7C7" transform="translate(1043,277)"/>
<path d="M0 0 C0.66 0.33 1.32 0.66 2 1 C0.8553125 1.8971875 0.8553125 1.8971875 -0.3125 2.8125 C-2.3483575 4.46959332 -4.1978279 6.10297674 -6 8 C-6.99 7.67 -7.98 7.34 -9 7 C-6.03 4.69 -3.06 2.38 0 0 Z " fill="#222222" transform="translate(250,262)"/>
<path d="M0 0 C0.66 0.33 1.32 0.66 2 1 C0.375 7.75 0.375 7.75 -3 10 C-2.01 6.7 -1.02 3.4 0 0 Z " fill="#D6D7D8" transform="translate(949,363)"/>
<path d="M0 0 C-0.33 0.99 -0.66 1.98 -1 3 C-3.64 3.33 -6.28 3.66 -9 4 C-5.86025155 0.71753571 -4.76763047 0 0 0 Z " fill="#282828" transform="translate(444,439)"/>
<path d="M0 0 C0.33 0.66 0.66 1.32 1 2 C-0.98 4.64 -2.96 7.28 -5 10 C-5.66 9.67 -6.32 9.34 -7 9 C-4.69 6.03 -2.38 3.06 0 0 Z " fill="#2B2B2C" transform="translate(945,299)"/>
<path d="M0 0 C1.65 0 3.3 0 5 0 C5 0.99 5 1.98 5 3 C3.35 3 1.7 3 0 3 C0 2.01 0 1.02 0 0 Z " fill="#222222" transform="translate(309,480)"/>
</svg>
